<svg width="161" height="90" viewBox="0 0 161 90" fill="none" xmlns="http://www.w3.org/2000/svg">
<rect width="161" height="90" rx="3" fill="white"/>
<path d="M47.6927 28.3236C48.5253 28.2592 48.4494 28.2483 48.7697 28.9731C48.3421 29.925 45.9107 32.4116 45.144 33.4124C43.8132 35.1495 42.4424 37.0034 41.1092 38.7396L37.9583 42.8701C37.5804 43.3674 37.107 43.8877 36.7664 44.401C34.7522 47.437 32.8013 50.5304 30.7786 53.5602C30.1017 54.5742 29.3457 56.3196 28.5895 57.1724C28.5674 57.1817 28.5453 57.1907 28.523 57.1994C27.4548 57.6169 25.15 57.7113 24.0222 57.2172C23.292 56.3344 22.4224 53.9779 22.0054 52.8615C21.4148 51.1228 20.4326 49.0108 20.8591 47.1365C22.002 45.9476 23.455 45.3204 25.0737 45.1202C25.2199 45.1844 25.5614 45.3981 25.7146 45.4888C26.2094 46.7262 26.7487 48.1967 27.3338 49.404C27.3762 49.4913 27.6656 49.7587 27.7523 49.8372C28.534 49.3064 29.8928 46.9153 30.4968 46.0331L34.9183 39.5715C36.2009 37.6607 37.5082 35.5869 38.9562 33.7946C39.9508 32.5636 41.3953 30.6176 42.7246 29.7937C44.045 28.9753 46.1588 28.4947 47.6927 28.3236Z" fill="#034B94"/>
<path d="M47.652 38.4537C48.8196 38.4068 50.2406 38.4358 51.4354 38.4258L53.2796 49.146C53.3331 49.4439 53.4906 50.5747 53.3393 50.7904C52.9215 50.9329 50.5252 50.8763 50.0456 50.8019C49.9865 50.1148 49.9127 49.4355 49.7118 48.7736C49.6595 48.6012 49.646 48.4197 49.6352 48.2405L45.7807 48.2408L45.0116 48.2519C44.434 48.9691 44.2025 49.9331 43.6632 50.6018C43.3334 51.0109 40.201 50.9634 39.9492 50.6687C40.1603 49.9926 40.8348 49.0018 41.2186 48.3648L43.5754 44.4693C44.727 42.5406 45.7947 40.4219 47.1452 38.6223C47.2617 38.4672 47.4687 38.4652 47.652 38.4537ZM46.3712 45.6727C46.4804 45.69 46.8813 45.7598 46.9702 45.7585C47.5978 45.7617 48.6906 45.7851 49.3051 45.7392C49.3092 45.2767 48.8976 41.6178 48.7573 41.4304C48.1871 42.5271 47.4672 43.626 46.9206 44.7553C46.7872 45.031 46.53 45.3557 46.3712 45.6727Z" fill="#034B94"/>
<path d="M79.4694 41.405C81.1482 41.3747 82.6255 41.2704 84.0981 42.2765C84.8409 42.7797 85.3485 43.5589 85.5058 44.4384C85.5892 44.9031 85.5576 45.2652 85.5743 45.7122C85.6946 48.9365 83.643 50.5461 80.7431 51.056C79.5611 51.2311 77.7287 51.0912 76.695 50.4937C74.38 49.1554 74.1182 46.0933 75.4038 43.9459C76.4435 42.2094 77.6781 41.8882 79.4694 41.405ZM78.3284 47.8449C78.8856 48.5672 79.2847 48.8279 80.2308 48.6884C80.6698 48.464 81.141 48.3714 81.4157 47.9676C82.3229 46.6358 82.5588 45.1136 81.5157 43.8372C81.0707 43.7262 80.7354 43.6704 80.2737 43.7071C78.2823 44.1225 78.13 46.2104 78.3284 47.8449Z" fill="#034B94"/>
<path d="M103.614 37.4483C103.786 37.4339 103.844 37.4188 103.992 37.5019C104.287 38.0825 103.328 41.4912 103.24 42.4577C103.934 41.9826 104.568 41.5566 105.452 41.4241C107.113 41.1753 108.792 41.71 109.03 43.6099C109.253 45.3898 108.866 47.3458 108.406 49.0753C108.297 49.4861 108.367 50.293 108.124 50.6856C107.849 50.9922 104.937 50.909 104.767 50.7655C104.626 50.4854 105.677 45.8777 105.718 44.9628C105.632 44.5951 105.571 44.5623 105.322 44.2583C101.454 43.1575 102.237 49.8472 101.242 50.7332C100.809 50.9129 98.3989 50.9991 98.132 50.6924C98.0766 50.1295 98.3632 49.1758 98.4758 48.5731C98.7885 46.8971 99.1698 45.3415 99.467 43.647C99.6415 42.6521 99.9912 41.7749 100.192 40.6648C100.316 39.9778 100.569 38.3657 100.915 37.6926C101.282 37.4231 103.042 37.4785 103.614 37.4483Z" fill="#034B94"/>
<path d="M135.315 37.4462C135.451 37.4345 135.843 37.3723 135.849 37.535C135.886 38.4809 134.293 44.4003 134.464 44.8347C134.591 44.8036 134.668 44.7584 134.75 44.6499C135.527 43.6222 136.268 42.6267 137.103 41.6426C138.19 41.5391 139.624 41.6131 140.734 41.6635C140.333 42.3578 139.872 42.7498 139.433 43.3611C139.193 43.6946 137.183 45.9995 137.211 46.0706C137.783 47.5115 138.664 48.8869 139.282 50.3276C139.58 51.0203 138.525 50.8663 138.083 50.864C137.682 50.856 136.321 50.9448 135.956 50.7875C135.316 50.5119 134.613 46.7253 133.906 47.009C133.6 47.4413 133.642 48.3533 133.496 48.9519C133.315 49.6867 133.241 50.1437 132.942 50.8719C132.326 50.8865 130.25 50.8832 129.712 50.8068C129.742 49.8998 130.065 48.8342 130.268 47.9308L131.351 43.1067C131.588 42.0498 132.214 38.2628 132.624 37.5636C133.198 37.452 134.618 37.4874 135.315 37.4462Z" fill="#034B94"/>
<path d="M93.5483 38.2649C94.9035 38.085 98.1149 38.3068 99.239 38.941C99.1973 39.141 98.5379 41.1653 98.4449 41.3713C98.0887 41.3361 97.5157 41.1541 97.1582 41.045C95.8143 40.6288 94.807 40.6584 93.4434 41.091C91.3096 41.7682 90.2874 44.3606 90.8408 46.4044C90.9307 46.7356 91.2673 47.2511 91.4103 47.6485C91.7403 47.8313 92.0024 48.0099 92.3569 48.1775C93.7562 48.8394 95.5778 48.5038 96.9885 47.9607C97.0302 47.9711 97.0713 48.0148 97.1082 48.0456C97.2434 48.6946 97.169 50.0761 96.7978 50.7033C96.7234 50.7201 96.6483 50.7361 96.5739 50.7514C94.1904 51.2355 91.7761 51.4377 89.6148 50.101C86.6441 48.2639 86.5553 43.8232 88.3668 41.1586C89.7078 39.1856 91.3305 38.7056 93.5483 38.2649Z" fill="#034B94"/>
<path d="M114.807 41.4036C115.629 41.3894 116.395 41.3425 117.224 41.4738C119.583 41.8473 120.557 43.9654 120.279 46.1668C120.246 46.4251 120.115 46.7472 120.055 47.0337C119.718 47.1955 114.348 47.0907 113.426 47.1594C113.635 47.7521 113.829 48.2489 114.425 48.5472C115.85 49.2616 117.437 48.6441 118.793 48.2038C118.814 48.2358 118.851 48.334 118.868 48.3739C118.76 48.8 118.473 50.7377 118.008 50.8011C115.992 51.0763 114.251 51.5014 112.347 50.4386C109.923 49.0849 109.879 46.0236 111.116 43.8578C111.974 42.3795 113.21 41.8073 114.807 41.4036ZM115.221 45.292C115.662 45.298 117.26 45.3873 117.392 45.1433C117.74 44.5068 116.699 43.5292 116.023 43.5306C114.717 43.7787 114.195 43.9435 113.818 45.2904C114.264 45.2905 114.781 45.2775 115.221 45.292Z" fill="#034B94"/>
<path d="M59.1353 41.5955C59.1979 41.575 59.2742 41.5851 59.3417 41.5884C59.7642 42.1181 59.2297 43.0454 59.1373 43.5958C58.9898 44.4735 58.8418 45.3164 58.6032 46.1762C58.4481 46.7355 58.3092 47.5915 58.7467 48.0532C59.0256 48.3476 59.8461 48.2717 60.2395 48.2702C60.8099 47.8861 61.1884 47.8096 61.4657 47.1155C61.9448 45.9161 62.2626 44.6758 62.5124 43.411C62.603 42.9518 62.7087 42.2245 62.876 41.8212C63.2855 41.4067 65.0645 41.7152 65.684 41.5885C65.8169 41.5614 65.9195 41.6604 66.0021 41.7441C66.1842 42.346 65.8213 43.9619 65.6241 44.574C65.3239 45.5057 65.1865 46.4274 64.9287 47.3649C64.6873 48.151 64.7495 49.6814 64.3935 50.531C64.1797 51.0411 63.4579 50.843 63.0088 50.8513C62.4552 50.8614 61.908 50.9386 61.3811 50.8038C61.1587 50.736 61.3571 50.1349 61.2966 49.9001C61.1571 49.8508 61.026 49.895 60.9183 49.9937C58.8446 51.8606 55.3433 51.514 55.0537 48.3349C54.9563 47.2665 55.6896 42.418 56.2648 41.7247C56.7594 41.5197 58.4418 41.634 59.1353 41.5955Z" fill="#034B94"/>
<path d="M72.9927 38.6787L73.1048 38.6945C73.3969 39.2717 72.8025 40.7485 72.796 41.3556C72.7909 41.8188 74.1973 41.412 74.5833 41.6793C74.7561 42.0376 74.6061 43.391 74.5749 43.8611C74.0856 43.8925 72.4538 43.7921 72.1705 43.9621C72.1105 44.2298 71.8941 44.9486 71.8761 45.1599C71.8192 45.8294 71.6169 46.3491 71.3823 46.8469C71.3003 47.0209 71.3549 48.2636 71.3564 48.5382C72.1815 49.0529 72.3737 49.0255 73.2527 48.6917C73.2224 51.2735 73.3091 51.1065 70.6402 51.1189C70.2121 51.0959 69.7202 50.9628 69.34 50.7657C68.7568 50.4659 68.32 49.9447 68.1289 49.3203C67.7536 48.1324 68.2059 46.5539 68.5199 45.4027C68.6853 44.7963 68.4695 44.6234 68.8528 43.8933C68.3369 43.8644 67.678 43.8781 67.1514 43.8744C67.1962 43.2283 67.3646 42.4019 67.4624 41.7332C67.9882 41.5943 68.8551 41.6209 69.1546 41.4986C69.6011 41.3162 69.4841 39.8349 70.1143 39.4904C70.7524 39.1416 72.4999 39.0387 72.9927 38.6787Z" fill="#034B94"/>
<path d="M126.116 41.4088C126.796 41.3987 129.433 41.2779 129.979 41.9688C130.23 42.2871 129.687 43.6609 129.606 44.2387C126.879 43.2218 124.523 43.907 124.605 47.2039C126.287 49.7238 128.465 48.0832 128.937 48.303C128.978 48.6327 128.819 49.3457 128.715 49.6648C128.572 50.1362 128.586 50.2525 128.383 50.7666C128.268 50.8067 128.151 50.8408 128.031 50.8687C126.544 51.2106 124.557 51.3242 123.206 50.4835C122.236 49.8679 121.55 48.8981 121.294 47.7835C120.829 45.7662 121.765 43.6542 123.415 42.4517C124.295 41.8102 125.077 41.6423 126.116 41.4088Z" fill="#034B94"/>
<path d="M115.758 55.7455C117.454 54.8854 118.385 55.642 118.874 57.2884C118.971 57.6274 119.009 57.9745 118.964 58.3257C118.096 60.1167 117.674 60.8904 115.612 59.9417C115.572 60.902 116.061 62.1706 114.615 61.9978C114.365 61.968 114.28 62.0202 114.094 61.8195C113.957 61.1594 114.015 56.3891 114.118 55.6562C114.768 55.6197 115.124 55.6611 115.758 55.7455ZM115.56 56.9409C115.604 57.9033 115.286 59.128 116.496 59.3069C117.702 58.9459 117.452 56.8186 116.486 56.2744C115.965 56.4447 115.915 56.5202 115.56 56.9409Z" fill="#034B94"/>
<path d="M103.564 53.4858C104.044 53.4685 107.623 53.3901 107.83 53.5453C108.737 55.2088 105.951 54.8252 105.071 54.8284C105.055 55.1947 105.074 55.6175 105.081 55.988C105.751 56.0627 106.888 56.0001 107.594 55.9844C107.632 56.336 107.621 57.0093 107.626 57.3862C106.967 57.4669 105.733 57.3014 105.108 57.517C105.078 57.5271 105.074 57.7179 105.069 57.7745C105.07 58.1567 105.075 58.5389 105.085 58.921C105.635 58.917 107.399 58.8763 107.834 59.0005C108.062 59.2622 107.998 59.8195 107.996 60.1859C107.448 60.2376 103.773 60.2676 103.455 60.102C103.222 59.5444 103.365 57.4085 103.334 56.6598C103.297 55.7976 103.335 54.7411 103.387 53.876C103.399 53.6803 103.44 53.6237 103.564 53.4858Z" fill="#034B94"/>
<path d="M79.8631 55.4987C81.4762 55.4022 81.8908 58.5862 80.8865 59.6414C79.9256 60.6511 79.3222 60.448 78.3256 59.729C78.2934 60.0867 78.3019 60.6585 78.2979 61.0314C78.3606 61.9702 78.1719 62.0926 77.2522 61.8571C77.229 61.0967 77.103 56.0948 77.3849 55.7993C77.465 55.7153 77.5926 55.6586 77.7083 55.654C78.0141 55.6417 78.2006 55.7974 78.4142 55.9861C79.0373 55.5682 79.1129 55.6016 79.8631 55.4987ZM79.6498 59.5208C79.8148 59.3938 80.0495 59.2228 80.1996 59.0893C80.4325 58.2404 80.7667 56.7011 79.6266 56.2666C79.5221 56.2268 79.057 56.2531 78.9186 56.2591C77.9287 57.1272 78.0225 59.4427 79.4813 59.6103C79.5174 59.5917 79.623 59.5406 79.6498 59.5208Z" fill="#034B94"/>
<path d="M71.2052 53.4151C71.3749 53.4131 71.6669 53.4692 71.7288 53.6108C72.0615 54.3706 74.4541 59.5371 74.3886 59.9629C74.1945 60.3075 73.7858 60.299 73.5587 60.0203C73.2238 59.6096 73.082 59.0532 72.8322 58.5748C72.348 58.5385 71.8212 58.5467 71.3317 58.5452C70.8161 58.5412 70.2744 58.5562 69.7566 58.5624C69.1977 59.0407 69.1634 60.1067 68.6435 60.2258C67.497 60.4885 68.4044 58.8619 68.4885 58.6615C68.8165 57.8699 69.1563 57.0831 69.5078 56.3015C69.8634 55.4996 70.1309 54.6843 70.5574 53.9128C70.7709 53.5264 70.7766 53.5631 71.2052 53.4151ZM71.325 57.625C71.5782 57.6448 71.8906 57.6908 72.1239 57.6063C72.1982 57.5376 72.2696 57.5021 72.2515 57.3974C72.121 56.6425 71.6358 55.7511 71.1926 55.1651C70.9243 55.4984 70.0589 57.1875 70.1694 57.5704C70.4033 57.6886 71.0411 57.6379 71.325 57.625Z" fill="#034B94"/>
<path d="M131.452 55.4321C132.28 55.3622 132.803 55.3989 133.591 55.6538C133.704 55.856 133.879 56.1132 134.007 56.3133C134.059 57.1243 134.031 58.1107 134.065 58.9616C135.126 59.5718 134.684 60.5015 133.62 60.3472C132.662 60.2082 132.896 59.5757 131.847 60.3239C131.371 60.3517 131.068 60.3383 130.604 60.2395C130.424 60.1747 130.259 60.0753 130.117 59.9467C129.534 59.413 129.526 58.4314 130.07 57.8594C130.746 57.146 131.488 57.2562 132.389 57.2226C132.619 55.7034 131.521 56.4597 130.881 56.9168C130.497 56.6969 130.091 56.5675 130.178 56.0669C130.444 55.6669 131.009 55.5499 131.452 55.4321ZM131.654 59.2992C132.497 59.2565 132.778 58.1755 132.434 57.8408L132.329 57.8414C131.756 58.0494 130.886 58.4174 131.549 59.2224C131.567 59.2442 131.628 59.2828 131.654 59.2992Z" fill="#034B94"/>
<path d="M95.9305 55.4276C97.3239 55.3692 98.0137 55.9089 98.3896 57.2536C98.7262 58.4591 98.05 60.002 96.7788 60.3247C94.4025 60.4317 93.6228 58.774 94.3811 56.5885C94.5991 55.9598 95.3289 55.6311 95.9305 55.4276ZM96.5864 59.5888C97.1047 59.2395 97.3072 58.8919 97.4275 58.2725C97.5818 57.4773 97.449 56.2029 96.3624 56.2502C96.1664 56.258 95.9686 56.2542 95.7709 56.2628C95.5993 56.3708 95.4623 56.453 95.3533 56.6325C94.8046 57.5382 94.8434 59.3198 96.114 59.5857C96.2349 59.6109 96.4702 59.6339 96.5864 59.5888Z" fill="#034B94"/>
<path d="M119.3 56.5106C119.852 55.8823 120.321 55.4307 121.205 55.3955C122.891 55.3284 123.492 56.2563 123.59 57.7421C123.598 57.8906 123.605 58.1235 123.625 58.2637C123.221 58.3494 121.098 58.3196 120.561 58.3375C121.065 59.7767 121.727 59.3588 122.622 58.609C122.84 58.7317 123.283 58.9198 123.374 59.1059C123.392 59.3225 123.193 59.5261 123.098 59.8036C122.586 60.123 122.371 60.2383 121.746 60.3292C120.605 60.4954 119.345 59.8845 119.17 58.6426C119.127 58.1453 119.156 57.6372 119.174 57.1378L119.3 56.5106ZM121.255 57.3908C121.689 57.4055 122.038 57.4951 122.146 56.9966C122.079 56.6686 121.804 56.4086 121.475 56.3657C121.074 56.4528 120.515 56.6861 120.618 57.1967C120.837 57.4624 120.926 57.4255 121.255 57.3908Z" fill="#034B94"/>
<path d="M137.616 55.4221C139.267 55.3678 139.59 55.835 139.523 57.4291C139.484 58.3504 139.593 59.2779 139.459 60.213C139.288 60.2176 138.478 60.2625 138.381 60.1452C137.597 59.1969 139.139 55.8578 136.936 56.5602C136.289 57.5052 136.778 59.0979 136.479 60.1458C136.437 60.2931 135.304 60.2024 135.156 60.195C135.033 59.3998 135.104 56.5631 135.156 55.7033C135.482 55.6507 136.069 55.5186 136.357 55.6327C136.426 55.6597 136.583 55.7882 136.736 55.8563C137.027 55.7063 137.32 55.5616 137.616 55.4221Z" fill="#034B94"/>
<path d="M83.3233 55.4307C84.3991 55.3652 84.675 55.3245 85.5006 55.9903C85.693 56.8689 85.5298 58.2367 85.6996 59.1759C85.7121 59.4027 85.8247 60.1593 85.6513 60.2994C85.3618 60.534 84.8721 60.0912 84.6916 59.904C83.704 60.1285 83.8523 60.39 82.8134 60.3285C82.5215 60.1623 82.4262 60.0939 82.1706 59.8755C82.1152 59.8107 82.0628 59.7434 82.0139 59.6737C81.728 59.2611 81.8823 58.5618 81.9657 58.103C82.204 57.8141 82.5191 57.5506 82.8009 57.2999C83.4734 57.1948 84.4498 57.4368 84.6767 56.647C84.6613 56.5417 84.6613 56.4243 84.557 56.3662C84.2842 56.2122 83.7671 56.1601 83.4609 56.2417C83.085 56.3419 82.7925 56.7753 82.3624 56.8055L82.2534 56.7086C81.9174 55.822 82.6722 55.6441 83.3233 55.4307ZM83.452 59.6863C83.7331 59.6723 84.0411 59.3835 84.3664 59.2496C84.5582 58.916 85.0175 57.9742 84.5546 57.7199L84.2651 57.7476C83.9107 57.8228 83.4865 57.884 83.2 58.0997C82.366 58.7274 82.7842 59.2932 83.452 59.6863Z" fill="#034B94"/>
<path d="M109.724 55.6162C110.282 55.4742 110.721 56.2527 110.99 56.6388C111.318 56.2828 111.762 55.6941 112.297 55.6815C112.474 55.6773 113.153 55.6524 113.287 55.7168L113.308 55.8168C113.054 56.339 112.331 57.3314 111.91 57.7269C112.4 58.3959 113.331 59.3917 113.568 60.1276C113.161 60.2083 112.688 60.2188 112.274 60.2042C111.85 60.1143 111.325 59.3033 111.045 58.9303C110.681 59.4237 110.202 60.2753 109.528 60.2726C109.277 60.2716 108.988 60.2426 108.802 60.0598C108.611 59.4847 109.594 58.7323 109.863 58.2199C109.953 58.05 110.018 57.7962 110.067 57.6108C109.822 57.3064 108.826 56.0602 108.789 55.7587C108.889 55.708 109.539 55.6465 109.724 55.6162Z" fill="#034B94"/>
<path d="M126.75 55.3066C126.803 55.771 126.98 56.467 126.689 56.8758C126.482 57.1561 125.93 57.0316 125.796 57.3826C125.489 58.1862 125.947 59.3471 125.611 60.1031C125.55 60.2411 124.444 60.2816 124.26 60.1467C124.156 59.984 124.175 59.7511 124.171 59.5519C124.264 59.1245 124.188 57.0789 124.185 56.5124L124.224 55.6137C124.942 55.6527 125.075 55.5248 125.586 55.9306L125.607 55.9475C126.046 55.7298 126.336 55.566 126.75 55.3066Z" fill="#034B94"/>
<path d="M100.33 53.4221C100.66 53.3922 101.017 53.403 101.131 53.775C101.006 54.2494 100.367 54.17 100.283 54.6269C100.245 54.8338 100.286 55.338 100.394 55.5156C100.535 55.6186 100.827 55.5627 101.042 55.5716C101.099 55.7963 101.094 55.849 101.071 56.0721C100.926 56.2123 100.531 56.3017 100.318 56.3644C100.342 56.9583 100.444 59.5565 100.267 59.9853C100.05 60.1661 99.8532 60.2871 99.5745 60.163C99.0288 59.7221 99.4625 57.1908 99.2581 56.4009C99.0568 56.204 99.0413 56.3006 98.7244 56.1885C98.6249 56.0333 98.6499 56.0946 98.6511 55.8931C98.7983 55.6514 98.9263 55.6439 99.2123 55.5194C99.4351 55.319 99.3874 54.1412 99.4255 53.7142C99.7341 53.5333 99.9813 53.4737 100.33 53.4221Z" fill="#034B94"/>
<path d="M128.569 55.5085C128.728 55.4889 128.762 55.4888 128.921 55.5078C129.063 55.8633 129.064 59.948 128.868 60.1563C128.6 60.2508 128.219 60.2158 127.927 60.2071C127.823 60.2006 127.75 60.1718 127.651 60.1408C127.43 59.8962 127.496 56.2662 127.683 55.7896C127.754 55.6084 128.379 55.5492 128.569 55.5085Z" fill="#034B94"/>
<path d="M90.278 54.2607C90.4567 54.1313 90.6152 53.9799 90.8284 53.9935C91.2907 54.3365 90.6563 55.2803 91.2746 55.6905C91.3229 55.9406 91.3199 56.0139 91.3086 56.2659C91.2609 56.2849 91.0983 56.3373 91.0899 56.371C90.9208 57.0612 90.9482 58.6106 91.0977 59.2957C91.1263 59.4283 91.6374 59.6015 91.7172 59.9121C91.4712 60.4817 90.6682 60.5178 90.4108 60.1656C89.8938 59.4571 90.1225 57.2431 90.1076 56.3756C89.8741 56.3218 89.6757 56.3016 89.5119 56.132L89.4404 55.8238C89.6227 55.6324 89.7716 55.5517 89.9962 55.4127C90.1297 55.0443 90.1994 54.6452 90.278 54.2607Z" fill="#034B94"/>
<path d="M88.0894 56.4166C86.9207 57.8128 87.9876 59.5559 87.2811 60.1974C87.072 60.2453 86.8158 60.2132 86.7616 60.0068C86.5775 59.3007 86.5656 56.2878 86.7699 55.7463C87.0225 55.6381 87.564 55.9009 87.9596 55.7568C88.3736 55.6058 88.6994 55.2126 89.0503 55.6039C89.1265 55.924 89.1498 55.8738 88.9597 56.1998C88.8883 56.2406 88.2181 56.3873 88.0894 56.4166Z" fill="#034B94"/>
<path d="M128.891 53.3311C129.036 53.5751 128.993 54.4314 128.989 54.7428C128.53 54.8024 128.185 54.7994 127.727 54.7711C127.444 54.6126 127.616 53.8255 127.649 53.5302C128.114 53.4757 128.434 53.4341 128.891 53.3311Z" fill="#034B94"/>
<path d="M123.589 57.7423C123.62 57.8356 123.658 57.9079 123.7 57.9958C123.8 57.9116 123.929 57.8528 124.046 57.7931C124.23 57.4471 124.056 57.0439 124.185 56.5127C124.188 57.0792 124.264 59.1248 124.171 59.5521C124.049 59.3912 124.157 58.7523 124.068 58.4232C124.056 58.4758 124.046 58.6224 124.041 58.684C124.029 58.5624 124.004 58.5027 123.965 58.3883C123.787 58.2461 123.868 58.2812 123.625 58.2638C123.604 58.1237 123.598 57.8908 123.589 57.7423Z" fill="#034B94"/>
<path d="M109.137 43.542L109.267 43.6059C109.383 44.0935 109.469 44.5969 109.334 45.1119C109.295 45.2631 109.304 45.2632 109.348 45.4293L109.278 45.5563L109.194 45.5547C109.134 45.2161 109.174 44.0648 109.137 43.542Z" fill="#034B94"/>
<path d="M91.2744 55.6904C91.5538 55.6236 91.6908 55.5702 91.9356 55.7185C92.0059 55.895 92.0012 55.8235 91.9291 56.0195C91.7534 56.2001 91.5604 56.2656 91.3084 56.2658C91.3197 56.0138 91.3227 55.9405 91.2744 55.6904Z" fill="#034B94"/>
<path d="M118.874 57.2883C118.875 57.1193 118.867 57.0489 118.925 56.8911C119.058 56.9184 119.077 57.0023 119.174 57.1377C119.156 57.6371 119.127 58.1452 119.17 58.6424L118.964 58.3257C119.01 57.9744 118.972 57.6273 118.874 57.2883Z" fill="#034B94"/>
<path d="M89.0505 55.604C89.1822 55.7194 89.2644 55.8151 89.4407 55.8236L89.5122 56.1318C89.3043 56.0561 89.1702 56.1275 88.96 56.1998C89.15 55.8738 89.1268 55.9241 89.0505 55.604Z" fill="#034B94"/>
</svg>
